<svg id="Group_6" data-name="Group 6" xmlns="http://www.w3.org/2000/svg" xmlns:xlink="http://www.w3.org/1999/xlink" width="115.177" height="39.822" viewBox="0 0 115.177 39.822">
  <defs>
    <linearGradient id="linear-gradient" x1="0.249" y1="0.753" x2="0.749" y2="0.248" gradientUnits="objectBoundingBox">
      <stop offset="0" stop-color="#0194d3"/>
      <stop offset="1" stop-color="#00b495"/>
    </linearGradient>
  </defs>
  <g id="Group_5" data-name="Group 5" transform="translate(44.457 5.931)">
    <g id="Group_4" data-name="Group 4">
      <path id="Path_16" data-name="Path 16" d="M152.741,20.882a5.952,5.952,0,0,0-1.627-.246,3.528,3.528,0,0,0-1.958.483,1.5,1.5,0,0,0-.738,1.314,1.728,1.728,0,0,0,.407,1.187,2.859,2.859,0,0,0,1,.719,15.677,15.677,0,0,0,1.627.586,13.67,13.67,0,0,1,1.94.7,3.435,3.435,0,0,1,1.254,1.008,3.052,3.052,0,0,1-.018,3.424,3.406,3.406,0,0,1-1.5,1.126,5.81,5.81,0,0,1-2.219.4,6.193,6.193,0,0,1-2.413-.492,6.475,6.475,0,0,1-2.024-1.305l.543-.965a5.89,5.89,0,0,0,1.845,1.22,5.31,5.31,0,0,0,2.067.44,3.723,3.723,0,0,0,2.152-.549,1.714,1.714,0,0,0,.8-1.481,1.811,1.811,0,0,0-.407-1.22,2.7,2.7,0,0,0-1-.728c-.395-.17-.95-.367-1.66-.592a16.863,16.863,0,0,1-1.93-.7,3.23,3.23,0,0,1-1.235-.983,2.681,2.681,0,0,1-.507-1.7,2.567,2.567,0,0,1,.507-1.575,3.213,3.213,0,0,1,1.424-1.041,5.694,5.694,0,0,1,2.119-.364,6.842,6.842,0,0,1,1.939.288,6.763,6.763,0,0,1,1.721.762l-.507,1A6.138,6.138,0,0,0,152.741,20.882Z" transform="translate(-146.47 -19.54)" fill="#fff"/>
      <path id="Path_17" data-name="Path 17" d="M193.924,32.574a5.2,5.2,0,0,1-1.448.965,3.772,3.772,0,0,1-1.518.34q-1.93,0-3.694-2.252h-.222a6.186,6.186,0,0,1-5.354-3.017,5.81,5.81,0,0,1-.829-3.032,5.733,5.733,0,0,1,.829-3.017,6.109,6.109,0,0,1,2.246-2.176,6.278,6.278,0,0,1,8.462,2.176,5.728,5.728,0,0,1,.832,3.017,5.843,5.843,0,0,1-.61,2.635,6.034,6.034,0,0,1-1.678,2.076,6.139,6.139,0,0,1-2.422,1.169,3.793,3.793,0,0,0,2.559,1.405,3.676,3.676,0,0,0,2.322-1.1Zm-11.2-4.489a5.015,5.015,0,0,0,1.83,1.821,4.9,4.9,0,0,0,2.507.671,4.8,4.8,0,0,0,2.483-.671,5.037,5.037,0,0,0,1.821-1.821,4.849,4.849,0,0,0,.677-2.507,4.8,4.8,0,0,0-.677-2.492,5.018,5.018,0,0,0-1.821-1.8,4.882,4.882,0,0,0-2.483-.662,5.033,5.033,0,0,0-4.337,2.459,4.764,4.764,0,0,0-.677,2.492A4.849,4.849,0,0,0,182.724,28.085Z" transform="translate(-170.422 -19.568)" fill="#fff"/>
      <path id="Path_18" data-name="Path 18" d="M232.081,29.755a4.223,4.223,0,0,0,5.5,0,3.924,3.924,0,0,0,.983-2.847V19.86h1.169v7.048a4.912,4.912,0,1,1-9.81,0V19.86h1.169v7.048A3.915,3.915,0,0,0,232.081,29.755Z" transform="translate(-204.591 -19.763)" fill="#fff"/>
      <path id="Path_19" data-name="Path 19" d="M277.283,31.753,275.878,28.6H269.3l-1.39,3.151H266.66L272,19.91h1.22l5.336,11.843Zm-7.524-4.2h5.658l-2.847-6.4Z" transform="translate(-230.18 -19.798)" fill="#fff"/>
      <path id="Path_20" data-name="Path 20" d="M320.063,31.753,317.5,27.89c-.361.021-.637.033-.832.033h-3.254v3.83H312.25V19.91h4.422a5.158,5.158,0,0,1,3.43,1.026,3.6,3.6,0,0,1,1.211,2.9,4.074,4.074,0,0,1-.71,2.455,3.7,3.7,0,0,1-2.034,1.372l2.847,4.082h-1.354Zm-3.387-4.878a3.95,3.95,0,0,0,2.61-.771,2.747,2.747,0,0,0,.914-2.228,2.635,2.635,0,0,0-.914-2.167,4.034,4.034,0,0,0-2.61-.747h-3.254v5.913Z" transform="translate(-261.932 -19.798)" fill="#fff"/>
      <path id="Path_21" data-name="Path 21" d="M352.62,19.91h7.928v1.05h-6.759V25.2h6.049v1.05h-6.049V30.7h6.981v1.05h-8.15Z" transform="translate(-290.049 -19.798)" fill="#fff"/>
      <path id="Path_22" data-name="Path 22" d="M153.127,73.8a5.647,5.647,0,0,0-1.685-.307,2.353,2.353,0,0,0-1.287.307.956.956,0,0,0-.474.847,1.114,1.114,0,0,0,.331.823,2.62,2.62,0,0,0,.829.543,13.121,13.121,0,0,0,1.363.467,14.888,14.888,0,0,1,1.973.71,3.566,3.566,0,0,1,1.314,1.05,2.9,2.9,0,0,1,.543,1.83,3.11,3.11,0,0,1-.586,1.888,3.652,3.652,0,0,1-1.609,1.229,6.1,6.1,0,0,1-2.346.425,7.41,7.41,0,0,1-2.71-.516,7.668,7.668,0,0,1-2.3-1.381l.95-1.93a6.967,6.967,0,0,0,2.015,1.305,5.371,5.371,0,0,0,2.085.473,2.646,2.646,0,0,0,1.49-.364,1.138,1.138,0,0,0,.543-.993,1.125,1.125,0,0,0-.331-.838,2.483,2.483,0,0,0-.838-.534c-.34-.137-.8-.288-1.39-.458a16.246,16.246,0,0,1-1.967-.7,3.406,3.406,0,0,1-1.305-1.026,2.832,2.832,0,0,1-.543-1.806,3.015,3.015,0,0,1,.549-1.8,3.571,3.571,0,0,1,1.56-1.2,5.971,5.971,0,0,1,2.331-.425,7.828,7.828,0,0,1,2.279.34,7.69,7.69,0,0,1,2.006.914L155,74.666A8.739,8.739,0,0,0,153.127,73.8Z" transform="translate(-146.477 -55.68)" fill="#fff"/>
      <path id="Path_23" data-name="Path 23" d="M185.05,72.05h2.27V83.909h-2.27Z" transform="translate(-173.34 -56.112)" fill="#fff"/>
      <path id="Path_24" data-name="Path 24" d="M208.024,77.666h1.982v4.507a7.92,7.92,0,0,1-2.2,1.126,7.7,7.7,0,0,1-2.492.431,6.318,6.318,0,0,1-3.178-.813,6.077,6.077,0,0,1-2.261-2.21,5.957,5.957,0,0,1-.832-3.093,5.763,5.763,0,0,1,.847-3.075,6.116,6.116,0,0,1,2.313-2.185,6.619,6.619,0,0,1,3.245-.8,7.146,7.146,0,0,1,2.507.458,6.606,6.606,0,0,1,2.134,1.254L208.8,74.94a4.911,4.911,0,0,0-1.566-1,4.787,4.787,0,0,0-1.788-.355,4.1,4.1,0,0,0-2.058.534,3.9,3.9,0,0,0-1.481,1.466,4.086,4.086,0,0,0,.006,4.082,4.063,4.063,0,0,0,3.548,2.018,4.541,4.541,0,0,0,1.278-.194,5.659,5.659,0,0,0,1.278-.549V77.666Z" transform="translate(-183.084 -55.764)" fill="#fff"/>
      <path id="Path_25" data-name="Path 25" d="M252.1,72.05h2.2V83.909H252.15l-6.1-8.168v8.168H243.83V72.05h2.152l6.116,8.183Z" transform="translate(-214.279 -56.112)" fill="#fff"/>
      <path id="Path_26" data-name="Path 26" d="M291.067,73.8a5.647,5.647,0,0,0-1.685-.307,2.353,2.353,0,0,0-1.287.307.956.956,0,0,0-.473.847,1.114,1.114,0,0,0,.331.823,2.619,2.619,0,0,0,.829.543,13.121,13.121,0,0,0,1.363.467,14.885,14.885,0,0,1,1.973.71,3.565,3.565,0,0,1,1.314,1.05,2.9,2.9,0,0,1,.543,1.83,3.11,3.11,0,0,1-.586,1.888,3.651,3.651,0,0,1-1.609,1.229,6.1,6.1,0,0,1-2.346.425,7.41,7.41,0,0,1-2.71-.516,7.668,7.668,0,0,1-2.3-1.381l.95-1.93a6.967,6.967,0,0,0,2.015,1.305,5.371,5.371,0,0,0,2.085.473,2.646,2.646,0,0,0,1.49-.364,1.138,1.138,0,0,0,.543-.993,1.125,1.125,0,0,0-.331-.838,2.483,2.483,0,0,0-.838-.534c-.34-.137-.8-.288-1.39-.458a16.239,16.239,0,0,1-1.967-.7,3.406,3.406,0,0,1-1.305-1.026,2.832,2.832,0,0,1-.543-1.806,3.015,3.015,0,0,1,.549-1.8,3.571,3.571,0,0,1,1.56-1.2,5.97,5.97,0,0,1,2.331-.425,7.828,7.828,0,0,1,2.279.34,7.688,7.688,0,0,1,2.006.914l-.914,1.982A8.874,8.874,0,0,0,291.067,73.8Z" transform="translate(-242.549 -55.68)" fill="#fff"/>
    </g>
  </g>
  <path id="Path_27" data-name="Path 27" d="M24.336,4.422,8.848,19.911l6.638,6.638L24.339,17.7l2.213,2.213L15.486,30.974,4.422,19.911l17.7-17.7L19.911,0,0,19.911,15.486,35.4,30.974,19.911l-6.638-6.638-8.854,8.854L13.27,19.914,24.336,8.848,35.4,19.911l-17.7,17.7,2.213,2.21L39.822,19.911Z" fill="url(#linear-gradient)"/>
</svg>
