<svg id="Group_3" data-name="Group 3" xmlns="http://www.w3.org/2000/svg" xmlns:xlink="http://www.w3.org/1999/xlink" width="224.17" height="48.2" viewBox="0 0 224.17 48.2">
  <defs>
    <linearGradient id="linear-gradient" x1="0.249" y1="0.753" x2="0.749" y2="0.248" gradientUnits="objectBoundingBox">
      <stop offset="0" stop-color="#0194d3"/>
      <stop offset="1" stop-color="#00b495"/>
    </linearGradient>
  </defs>
  <g id="Group_2" data-name="Group 2" transform="translate(53.174 15.625)">
    <g id="Group_1" data-name="Group 1">
      <path id="Path_4" data-name="Path 4" d="M153.417,44.693a8.206,8.206,0,0,0-2.252-.342,4.883,4.883,0,0,0-2.708.669,2.071,2.071,0,0,0-1.021,1.819A2.383,2.383,0,0,0,148,48.48a3.973,3.973,0,0,0,1.385,1,21.886,21.886,0,0,0,2.252.808,19.29,19.29,0,0,1,2.686.974,4.719,4.719,0,0,1,1.734,1.4,4.221,4.221,0,0,1-.022,4.739,4.726,4.726,0,0,1-2.076,1.561,8.008,8.008,0,0,1-3.071.551,8.634,8.634,0,0,1-3.343-.68,8.937,8.937,0,0,1-2.8-1.807l.749-1.337a8.1,8.1,0,0,0,2.557,1.69,7.335,7.335,0,0,0,2.862.61,5.172,5.172,0,0,0,2.979-.76,2.372,2.372,0,0,0,1.1-2.054,2.516,2.516,0,0,0-.562-1.69,3.7,3.7,0,0,0-1.385-1.007c-.547-.235-1.312-.507-2.3-.819a23.924,23.924,0,0,1-2.674-.974,4.508,4.508,0,0,1-1.712-1.359,3.724,3.724,0,0,1-.705-2.359,3.535,3.535,0,0,1,.705-2.182,4.468,4.468,0,0,1,1.969-1.444,7.93,7.93,0,0,1,2.932-.5,9.474,9.474,0,0,1,2.686.4,9.288,9.288,0,0,1,2.381,1.054l-.705,1.385A8.43,8.43,0,0,0,153.417,44.693Z" transform="translate(-144.74 -42.72)" fill="#262626"/>
      <path id="Path_5" data-name="Path 5" d="M202.142,60.883a7.248,7.248,0,0,1-2.006,1.337,5.2,5.2,0,0,1-2.1.47q-2.673,0-5.114-3.119h-.3a8.554,8.554,0,0,1-7.41-4.173,8.022,8.022,0,0,1-1.15-4.2,7.886,7.886,0,0,1,1.15-4.173,8.433,8.433,0,0,1,3.108-3.012,8.688,8.688,0,0,1,11.712,3.012,7.938,7.938,0,0,1,1.15,4.173,8.112,8.112,0,0,1-.845,3.648,8.459,8.459,0,0,1-5.676,4.489,5.268,5.268,0,0,0,3.542,1.947,5.076,5.076,0,0,0,3.215-1.525Zm-15.5-6.216a6.938,6.938,0,0,0,2.531,2.52,6.787,6.787,0,0,0,3.472.926,6.684,6.684,0,0,0,3.435-.926,6.964,6.964,0,0,0,2.52-2.52,6.725,6.725,0,0,0,.937-3.472,6.606,6.606,0,0,0-.937-3.446,6.931,6.931,0,0,0-2.52-2.487,6.745,6.745,0,0,0-3.435-.915,6.956,6.956,0,0,0-6,3.4,6.854,6.854,0,0,0,0,6.918Z" transform="translate(-169.615 -42.764)" fill="#262626"/>
      <path id="Path_6" data-name="Path 6" d="M243.158,56.906a5.846,5.846,0,0,0,7.608,0,5.432,5.432,0,0,0,1.359-3.942V43.21h1.616v9.758a6.787,6.787,0,0,1-1.793,5,6.808,6.808,0,0,1-11.789-5V43.21h1.616v9.758A5.439,5.439,0,0,0,243.158,56.906Z" transform="translate(-205.105 -42.96)" fill="#262626"/>
      <path id="Path_7" data-name="Path 7" d="M296.892,59.662,294.945,55.3h-9.1l-1.921,4.361H282.19l7.388-16.392h1.69l7.384,16.392Zm-10.411-5.816h7.832l-3.938-8.865Z" transform="translate(-231.694 -42.998)" fill="#262626"/>
      <path id="Path_8" data-name="Path 8" d="M345.146,59.662,341.6,54.313c-.5.033-.885.048-1.15.048h-4.5v5.3h-1.62V43.27h6.124a7.16,7.16,0,0,1,4.75,1.418,4.982,4.982,0,0,1,1.675,4.023,5.648,5.648,0,0,1-.985,3.4,5.14,5.14,0,0,1-2.814,1.9l3.938,5.654h-1.874Zm-4.691-6.752a5.465,5.465,0,0,0,3.611-1.065,3.806,3.806,0,0,0,1.267-3.086,3.646,3.646,0,0,0-1.267-3,5.593,5.593,0,0,0-3.611-1.032h-4.5V52.91Z" transform="translate(-264.679 -42.998)" fill="#262626"/>
      <path id="Path_9" data-name="Path 9" d="M380.5,43.27h10.977v1.455h-9.361v5.863h8.373v1.455h-8.373v6.168h9.662v1.455H380.5Z" transform="translate(-293.887 -42.998)" fill="#262626"/>
      <path id="Path_10" data-name="Path 10" d="M425.659,45.8a7.767,7.767,0,0,0-2.333-.422,3.254,3.254,0,0,0-1.782.422,1.326,1.326,0,0,0-.658,1.172,1.548,1.548,0,0,0,.456,1.139,3.544,3.544,0,0,0,1.15.749,18.358,18.358,0,0,0,1.888.647,20.754,20.754,0,0,1,2.733.985,4.859,4.859,0,0,1,1.819,1.455,4.009,4.009,0,0,1,.749,2.535,4.33,4.33,0,0,1-.808,2.616,5.073,5.073,0,0,1-2.226,1.7,8.477,8.477,0,0,1-3.248.588,10.185,10.185,0,0,1-3.751-.716,10.674,10.674,0,0,1-3.189-1.91l1.315-2.675a9.619,9.619,0,0,0,2.792,1.807,7.443,7.443,0,0,0,2.884.658,3.682,3.682,0,0,0,2.065-.5,1.661,1.661,0,0,0,.294-2.531,3.388,3.388,0,0,0-1.161-.738q-.705-.281-1.921-.632a22.786,22.786,0,0,1-2.722-.963,4.747,4.747,0,0,1-1.807-1.418,3.914,3.914,0,0,1-.749-2.5,4.193,4.193,0,0,1,.76-2.5,4.882,4.882,0,0,1,2.156-1.653,8.3,8.3,0,0,1,3.226-.588,10.93,10.93,0,0,1,3.156.47,10.575,10.575,0,0,1,2.777,1.267l-1.267,2.744A11.652,11.652,0,0,0,425.659,45.8Z" transform="translate(-316.636 -42.53)" fill="#262626"/>
      <path id="Path_11" data-name="Path 11" d="M460.55,43.21h3.141V59.628H460.55Z" transform="translate(-344.528 -42.96)" fill="#262626"/>
      <path id="Path_12" data-name="Path 12" d="M489.008,51.1h2.744v6.238A10.976,10.976,0,0,1,488.7,58.9a10.621,10.621,0,0,1-3.446.6,8.763,8.763,0,0,1-4.4-1.124,8.371,8.371,0,0,1-3.13-3.06,8.2,8.2,0,0,1-1.15-4.28,7.973,7.973,0,0,1,1.172-4.258,8.483,8.483,0,0,1,3.2-3.027,9.185,9.185,0,0,1,4.493-1.113,9.939,9.939,0,0,1,3.472.632,9.185,9.185,0,0,1,2.954,1.734l-1.782,2.322a6.767,6.767,0,0,0-2.171-1.385,6.636,6.636,0,0,0-2.472-.492,5.687,5.687,0,0,0-2.851.738,5.611,5.611,0,0,0-2.043,7.678,5.631,5.631,0,0,0,4.916,2.788,6.324,6.324,0,0,0,1.771-.268,7.926,7.926,0,0,0,1.771-.76Z" transform="translate(-354.669 -42.6)" fill="#262626"/>
      <path id="Path_13" data-name="Path 13" d="M539.224,43.21h3.049V59.628h-2.979l-8.442-11.3v11.3H527.78V43.21h2.979l8.468,11.326V43.21Z" transform="translate(-387.06 -42.96)" fill="#262626"/>
      <path id="Path_14" data-name="Path 14" d="M583.4,45.8a7.767,7.767,0,0,0-2.333-.422,3.254,3.254,0,0,0-1.782.422,1.326,1.326,0,0,0-.658,1.172,1.548,1.548,0,0,0,.456,1.139,3.544,3.544,0,0,0,1.15.749,18.667,18.667,0,0,0,1.888.647,20.756,20.756,0,0,1,2.733.985,4.859,4.859,0,0,1,1.818,1.455,4.009,4.009,0,0,1,.749,2.535,4.33,4.33,0,0,1-.808,2.616,5.073,5.073,0,0,1-2.226,1.7,8.477,8.477,0,0,1-3.248.588,10.185,10.185,0,0,1-3.751-.716,10.674,10.674,0,0,1-3.189-1.91l1.315-2.675a9.62,9.62,0,0,0,2.792,1.807,7.443,7.443,0,0,0,2.884.658,3.682,3.682,0,0,0,2.065-.5,1.661,1.661,0,0,0,.294-2.531,3.387,3.387,0,0,0-1.161-.738q-.705-.281-1.921-.632a22.781,22.781,0,0,1-2.722-.963,4.746,4.746,0,0,1-1.807-1.418,3.914,3.914,0,0,1-.75-2.5,4.193,4.193,0,0,1,.761-2.5,4.881,4.881,0,0,1,2.156-1.653,8.3,8.3,0,0,1,3.226-.588,10.931,10.931,0,0,1,3.156.47,10.576,10.576,0,0,1,2.777,1.267L586,47.012A11.5,11.5,0,0,0,583.4,45.8Z" transform="translate(-416.426 -42.53)" fill="#262626"/>
    </g>
  </g>
  <path id="Path_15" data-name="Path 15" d="M29.456,5.353,10.709,24.1l8.035,8.035L29.46,21.418,32.138,24.1,18.744,37.491,5.353,24.1,26.778,2.678,24.1,0,0,24.1,18.744,42.847,37.491,24.1l-8.035-8.035L18.74,26.782,16.062,24.1,29.456,10.709,42.847,24.1,21.422,45.525,24.1,48.2,48.2,24.1Z" fill="url(#linear-gradient)"/>
</svg>
